<?xml version="1.0" encoding="UTF-8" standalone="no"?>
<!-- Created with Inkscape (http://www.inkscape.org/) -->

<svg
   width="512"
   height="377"
   viewBox="0 0 135.46667 99.748365"
   version="1.1"
   id="svg1"
   xml:space="preserve"
   inkscape:export-filename="mirahackclub.png"
   inkscape:export-xdpi="96"
   inkscape:export-ydpi="96"
   inkscape:version="1.3.2 (091e20ef0f, 2023-11-25, custom)"
   sodipodi:docname="miramonte_clean.svg"
   xmlns:inkscape="http://www.inkscape.org/namespaces/inkscape"
   xmlns:sodipodi="http://sodipodi.sourceforge.net/DTD/sodipodi-0.dtd"
   xmlns="http://www.w3.org/2000/svg"
   xmlns:svg="http://www.w3.org/2000/svg"><sodipodi:namedview
     id="namedview1"
     pagecolor="#ffffff"
     bordercolor="#000000"
     borderopacity="0.25"
     inkscape:showpageshadow="2"
     inkscape:pageopacity="0.0"
     inkscape:pagecheckerboard="0"
     inkscape:deskcolor="#d1d1d1"
     inkscape:document-units="mm"
     inkscape:zoom="1.6918082"
     inkscape:cx="244.70859"
     inkscape:cy="178.80277"
     inkscape:window-width="1912"
     inkscape:window-height="1034"
     inkscape:window-x="0"
     inkscape:window-y="0"
     inkscape:window-maximized="1"
     inkscape:current-layer="layer1" /><defs
     id="defs1" /><g
     inkscape:label="Layer 1"
     inkscape:groupmode="layer"
     id="layer1"><g
       id="g6"
       transform="matrix(0.86559389,0,0,0.86559389,6.9184176,-9.8319081)"><g
         id="g4"
         transform="matrix(0.02657979,0,0,0.02657979,7.3969086,9.4311434)"><g
           id="l3jJOWfe54OFveesqxquKpb"
           fill="#050505"><g
             id="g1"><path
               id="p1C0tNfGh7"
               d="m 390,4147 v -43 l 70,-159 c 38,-88 84,-189 102,-223 l 33,-64 V 2252 845 L 493,616 390,387 v -37 -38 l 16,-6 16,-6 h 607 608 l 31,11 31,11 22,36 c 12,21 38,62 57,92 65,104 79,125 124,202 26,42 72,116 103,165 31,48 81,129 112,178 30,50 79,126 108,170 28,44 74,117 101,163 27,45 51,82 54,82 6,0 13,-10 118,-185 46,-77 108,-176 137,-220 29,-44 64,-100 79,-125 14,-25 80,-130 145,-235 66,-104 139,-221 161,-258 l 42,-68 24,-10 25,-9 h 578 578 l 47,6 46,7 v 37 38 l -51,119 c -29,65 -75,170 -103,233 l -51,115 -3,1377 -3,1376 21,64 c 12,35 41,106 65,158 23,52 59,133 79,180 l 36,86 v 47 47 h -800 -800 v -39 -39 l 41,-89 c 23,-48 70,-149 105,-223 l 64,-135 v -479 c 1,-263 -1,-480 -3,-482 -2,-2 -21,25 -43,61 -117,194 -146,242 -156,265 -7,14 -20,37 -31,53 l -18,27 h -319 -319 l -26,-22 -25,-23 -93,-157 c -50,-86 -101,-171 -112,-190 l -20,-33 -3,465 -3,465 10,41 c 9,36 39,102 172,381 l 39,82 v 35 36 H 1200 390 Z m 1140,-272 c 0,-3 -11,-32 -25,-65 l -25,-60 2,-1047 3,-1048 37,-3 37,-3 11,18 c 6,10 160,268 343,573 l 332,555 125,3 125,2 12,-7 c 6,-5 120,-190 253,-413 133,-223 285,-478 338,-567 l 97,-163 h 38 37 v 1058 1057 l -25,53 c -14,30 -25,56 -25,58 0,2 153,4 340,4 187,0 340,-2 340,-4 0,-2 -11,-29 -25,-60 l -25,-57 V 2256 752 l 21,-49 c 11,-26 25,-58 30,-70 l 9,-23 h -325 -325 v 9 c 0,10 -38,72 -370,606 -133,215 -295,474 -358,578 l -115,187 h -38 -37 l -5,-14 c -5,-11 -413,-669 -745,-1198 L 1487,610 h -318 c -176,0 -319,2 -319,5 0,2 11,30 25,61 l 25,56 v 1519 1518 l -24,56 -25,55 h 340 339 z" /></g></g><g
           id="l5RhpGBhJxshWi71Rk5GGwB"
           fill="#134221"><g
             id="g2"><path
               id="psvaH0M7d"
               d="M 427.09307,871.66145 107.11139,142.49575 1749.6513,132.95283 2398.54,1078.8646 3020.4218,147.52772 4634.6927,96.744707 4322.9914,881.6163 l 6.6675,2735.6614 295.9764,713.5569 -2137.2519,17.7711 307.8155,-737.3501 -18.4523,-332.7589 -812.2661,-2.1182 -8.814,372.0509 310.6053,717.6258 L 112.65845,4343.979 427.54883,3651.3184 Z M 1980,4154 c 0,-3 -18,-42 -39,-87 -129,-271 -161,-342 -171,-375 l -10,-37 v -536 -536 l 6,-6 7,-6 33,52 c 18,28 43,70 55,92 12,22 58,101 102,175 l 81,135 27,28 27,27 h 290 290 l 10,-12 c 5,-7 21,-33 35,-58 40,-74 109,-193 127,-220 10,-14 44,-67 76,-117 32,-51 60,-91 62,-88 2,2 4,253 3,557 l -1,553 -64,135 c -118,251 -146,312 -146,321 v 9 h 770 770 v -17 c 0,-18 -45,-130 -115,-283 -24,-52 -53,-123 -65,-158 l -21,-64 3,-1406 3,-1407 51,-115 c 28,-63 75,-170 104,-238 l 53,-122 -7,-8 -8,-7 -587,-3 -587,-3 -26,10 -26,10 -42,68 c -22,37 -95,154 -161,258 -65,105 -131,210 -146,235 -14,25 -54,88 -88,140 -34,52 -86,136 -115,185 -28,50 -75,125 -103,168 l -51,77 -10,-3 c -6,-2 -39,-50 -73,-108 -34,-57 -82,-133 -105,-169 -24,-36 -71,-110 -105,-165 -34,-55 -87,-140 -118,-188 -31,-49 -77,-123 -103,-165 -45,-77 -59,-98 -124,-202 -19,-30 -45,-71 -57,-92 l -22,-36 -31,-11 -31,-11 H 1029 452 l -16,6 c -9,3 -16,10 -16,14 0,4 46,110 103,236 l 102,229 v 1437 1436 l -33,64 c -45,88 -172,379 -172,395 v 13 h 780 780 z M 438,2264 440,902 431,879 421,855 v 1387 z"
               sodipodi:nodetypes="ccccccccccccccccccsccccccccsccccccccccccccscccscccccccccccccccccsccccccsccccccccccscccccscccscccccccc" /></g></g><g
           id="l5xWcN3KJlN7lg9oDUrBm0b"
           fill="#ffffff"><g
             id="g3"><path
               id="pzZqnicHa"
               d="m 40,4391 c 0,-11 118,-271 260,-576 21,-44 48,-105 61,-135 l 24,-55 V 2245 865 L 303,683 C 165,379 60,138 54,113 L 48,90 h 863 864 l 11,8 c 7,4 114,171 239,372 125,201 245,392 266,425 21,33 48,77 59,97 l 20,38 h 10 10 l 20,-37 c 11,-21 44,-75 73,-120 56,-88 174,-278 320,-513 117,-189 159,-254 171,-262 l 9,-6 854,-1 853,-1 v 13 c 0,19 -58,160 -278,672 l -47,110 -3,1361 -2,1360 141,335 c 135,320 189,449 189,456 0,2 -513,3 -1141,3 H 2409 l 7,-22 c 3,-12 43,-101 87,-197 44,-97 92,-205 107,-241 16,-36 56,-126 89,-200 l 61,-135 v -142 -143 h -380 -380 v 154 154 l 59,123 c 32,68 89,189 126,269 37,80 91,196 121,258 30,63 54,115 54,118 0,2 -522,4 -1160,4 H 40 Z m 2190,-80 c 0,-5 -30,-71 -66,-147 -36,-77 -106,-225 -155,-330 l -89,-192 2,-253 3,-252 32,52 33,52 384,-3 384,-3 20,-18 c 11,-11 29,-35 39,-55 l 18,-37 3,248 2,248 -71,162 c -40,89 -110,245 -156,346 -45,101 -83,185 -83,187 0,2 459,4 1020,4 561,0 1020,-2 1020,-4 0,-5 -125,-303 -226,-540 l -64,-149 V 2257 888 l 69,-167 c 39,-91 104,-247 146,-346 l 75,-179 -4,-13 -5,-13 h -770 -770 l -18,24 c -10,13 -153,242 -318,509 l -300,485 -17,-21 C 2359,1155 2238,963 2099,740 1960,517 1823,298 1794,253 l -54,-83 H 968 195 l -13,9 -13,8 79,179 c 44,98 112,252 151,341 l 71,161 -2,1394 -3,1393 -64,135 c -99,210 -241,520 -241,525 0,3 466,5 1035,5 h 1035 z" /><path
               id="pB0T39sAE"
               d="m 800,3901 c 0,-4 16,-42 35,-84 l 35,-76 V 2251 760 l -40,-86 c -22,-48 -40,-88 -40,-90 0,-2 164,-4 364,-4 h 363 l 105,168 c 332,529 740,1187 745,1198 3,8 8,14 12,14 4,0 60,-84 123,-187 63,-104 225,-363 358,-578 332,-534 370,-596 370,-606 v -9 h 366 365 l -7,23 c -4,12 -22,57 -40,100 l -34,79 v 1473 1473 l 20,46 c 11,25 29,66 40,91 l 19,45 h -399 -399 l 40,-89 39,-89 V 2706 1680 h -7 c -5,0 -52,73 -105,163 -53,89 -205,344 -338,567 -133,223 -247,408 -253,412 l -12,8 -155,-3 -155,-2 -332,-555 c -183,-305 -337,-563 -343,-573 l -11,-18 -9,6 -10,6 v 1017 1017 l 40,90 c 22,49 40,90 40,92 0,2 -178,3 -395,3 H 800 Z" /></g></g></g><g
         style="display:inline;fill:none"
         id="g5"
         transform="matrix(0.28064819,0,0,0.28064819,-5.8724573,41.913702)" /></g><g
       style="fill:none"
       id="g7"
       transform="matrix(0.25825736,0,0,0.25825736,7.7579847e-5,26.223361)"><path
         d="m 55.8921,11.7637 c 0.0707,-0.1618 0.164,-0.2888 0.3102,-0.388 3.6278,-2.46232 56.3447,-35.6439 181.2237,24.2345 117.958,56.5607 236.902,-9.6296 258.275,-22.8628 0.709,-0.4385 1.896,0.6899 1.516,1.4308 l -21.482,41.816 c -0.339,0.6589 0.125,1.4434 0.865,1.4536 5.587,0.0776 25.068,0.3014 46.883,0.0118 0.905,-0.012 1.419,1.0178 0.761,1.6389 C 509.591,72.9242 406.186,167.698 325,167.698 c -87.574,0 -135,-20.455 -191,-35.924 -55.1431,-15.232 -81.6821,-20.342 -115.4217,-14.74 -0.7277,0.121 -1.3436,-0.555 -1.1416,-1.264 L 30.5,69.8989 Z"
         fill="#ec3750"
         id="path1" /><g
         fill="#ffffff"
         stroke="#ffffff"
         stroke-miterlimit="10"
         stroke-width="0.25"
         id="g9"><path
           d="m 83.681,33.1134 c -1.3288,7.5138 -3.8793,20.4209 -9.2407,37.1005 -11.136,26.6026 7.856,22.2635 13.2943,11.2109 3.2234,-6.1032 6.5386,-12.726 6.5386,-12.726 l 17.0678,6.5435 c 0,0 -1.374,7.7724 -2.779,14.2029 -5.362,16.6798 10.269,14.6768 14.592,2.355 1.924,-6.3367 10.891,-32.7944 13.364,-46.7858 3.728,-8.9535 -9.032,-17.1278 -14.805,-2.6602 -3.086,5.3259 -8.097,16.9897 -8.097,16.9897 0,0 -14.0882,-5.2053 -14.2559,-5.7702 -0.5501,-1.4346 1.1759,-5.1346 1.2519,-8.596 C 99.7539,21.032 85.4675,23.0081 83.681,33.1134 Z"
           id="path2" /><path
           d="m 158.883,51.7621 c 4.344,-8.648 9.332,-10.0984 13.041,-9.7043 1.6,0.1324 3.776,3.3868 5.44,6.5129 5.448,20.5877 -4.315,58.4523 -6.041,60.9953 -5.942,9.598 -16.368,7.783 -12.408,-2.586 1.85,-6.299 3.831,-12.0251 3.831,-12.0251 l -13.496,-1.507 c -10.605,20.6021 -20.14,11.9761 -14.645,3.076 5.878,-10.4263 18.401,-33.2526 24.278,-44.7618 z m -4.461,26.48 13.304,2.2707 c 0,0 3.695,-23.4265 -0.46,-20.9551 z"
           id="path3" /><path
           d="m 227.586,72.5188 c 1.761,-4.9617 -1.9,-16.1816 -14.69,-14.3105 C 194.371,58.3418 187.962,90.8 187.962,90.8 c 0,0 -3.079,15.72 1.78,26.434 4.416,10.33 15.128,10.363 17.208,10.625 12.159,-3.656 7.995,-11.757 5.916,-12.018 -2.647,-0.135 -6.238,0.299 -9.138,-2.066 -4.917,-3.963 -4.041,-14.0223 -2.973,-19.4326 2.515,-9.0989 8.05,-27.1676 16.875,-22.7463 5.296,6.7676 9.012,3.6588 9.956,0.9227 z"
           id="path4" /><path
           d="m 239.769,71.6846 c -3.257,9.9471 0.827,20.4238 -7.318,39.3594 -1.942,4.625 -6.705,13.107 -7.269,14.311 -4.512,8.548 4.65,13.586 14.742,-1.349 2.445,-3.418 5.138,-12.161 5.138,-12.161 l 4.391,-0.493 c 0,0 3.836,16.881 4.719,24.113 0.944,6.979 13.306,10.949 13.486,-2.748 -0.441,-4.695 -2.077,-11.042 -5.155,-19.105 0,0 -2.011,-5.905 -3.956,-6.672 0,0 13.794,-13.7181 15.109,-19.0421 1.377,-5.576 -1.135,-9.4525 -11.921,-0.3541 -10.785,9.0995 -12.038,12.0124 -12.038,12.0124 0,0 2.565,-11.4711 2.309,-20.1601 0.937,-9.192 -9.419,-15.8836 -12.237,-7.7115 z"
           id="path5" /><path
           d="m 309.24,88.9685 c -4.628,4.5878 -7.54,13.2005 -7.215,26.2315 0.645,19.451 8.704,30.626 22.464,28.401 13.76,-2.226 10.52,-12.154 9.252,-12.483 -1.014,-0.263 -1.269,-1.43 -6.911,0.692 -5.644,2.121 -9.893,-0.356 -13.45,-8.989 -2.35,-5.842 -3.624,-17.191 0.621,-23.53 1.268,-1.8764 2.472,-2.3917 3.106,-2.7788 2.536,-1.547 5.136,-0.0478 5.581,0.3425 7.106,5.1433 8.497,-0.5566 5.957,-5.6217 -5.013,-7.0817 -11.672,-8.5286 -19.405,-2.2645 z"
           id="path6" /><path
           d="m 340,89.2622 c -0.067,-7.3833 7.556,-13.075 10.236,3.4348 3.31,10.668 2.468,31.296 4.056,33.206 1.588,1.91 13.41,-0.756 16.611,-1.833 3.2,-1.077 9.098,0.337 7.765,3.543 -1.079,3.271 -4.13,3.582 -4.765,3.966 -0.636,0.383 -27.356,8.304 -28.348,3.031 -0.992,-5.274 -1.055,-7.701 -2.055,-16.682 -1,-8.982 -3.432,-21.2814 -3.5,-28.6658 z"
           id="path7" /><path
           d="m 372.043,82.6536 c -0.58,-5.3377 4.863,-8.5989 8.069,-2.8677 2.435,4.4428 5.264,23.7381 9.24,31.8511 2.18,3.285 6.663,3.877 8.776,0.863 2.495,-4.557 0.695,-15.9411 -0.847,-25.0747 -1.092,-4.375 -2.35,-7.7192 -2.287,-10.1622 0.956,-8.2259 7.554,-6.2767 10.633,2.1541 2.566,9.3945 5.24,24.5718 3.899,29.9678 -1.278,5.138 -2.62,11.627 -9.28,13.214 -1.729,0.381 -16.138,2.457 -21.206,-13.309 -4.878,-16.5368 -6.417,-21.2987 -6.997,-26.6364 z"
           id="path8" /><path
           d="m 417.228,65.0324 c 8.861,-5.3565 15.509,-7.1942 20.702,-5.3188 3.04,1.8678 5.006,7.0007 4.186,11.42 -0.947,3.8422 -2.529,6.9772 -2.529,6.9772 5.256,0.5298 9.105,5.7759 10.105,12.6419 1,6.8661 -5.468,13.3283 -17.496,17.3283 -4.052,1.141 -8.357,1.127 -8.548,-0.283 -0.129,-2.757 -10.341,-35.6004 -10.341,-35.6004 -0.319,-1.9882 -1.396,-4.1699 3.921,-7.1652 z m 3.675,5.8433 4.439,10.3958 c 0,0 10.762,-4.3247 9.492,-10.097 -1.269,-5.7713 -8.042,-2.3322 -13.931,-0.2988 z m 5.963,18.4112 c 0,0 3.046,12.7621 2.92,12.1851 -0.065,-0.833 15.69,-3.971 12.33,-12.1851 -3.362,-8.2131 -15.25,0 -15.25,0 z"
           id="path9" /></g><path
         d="m 56.2741,6.96607 c 0,0 1.0366,-1.19259 2.9957,-0.94409 1.9591,0.2485 1.4758,2.50907 0.7379,3.98192 C 59.2698,11.4768 40.6829,49.588 27.2312,92.5764 13.7796,135.565 14.8081,181.5 14.8081,184 H 0.00983695 C -0.191864,179.5 2.61166,136.251 17.4214,92.5764 32.2312,48.9014 54.3114,8.48401 56.2741,6.96607 Z"
         fill="#d98b51"
         id="path10" /></g></g></svg>
